<svg xmlns="http://www.w3.org/2000/svg" viewBox="0 0 244 239"><path d="M203.62 233.98C202.25 233.88 200.11 233.62 198.88 233.41C197.64 233.20 195.78 232.96 194.75 232.86C192.44 232.65 190.25 232.10 189.75 231.61C189.46 231.32 189.38 230.55 189.38 228.10C189.37 223.57 189.06 223.89 193.32 224.10C195.27 224.20 197.49 224.38 198.25 224.50C201.44 225.00 213.30 225.32 218.25 225.05C226.54 224.58 228.83 223.57 228.86 220.36C228.88 219.05 228.08 217.44 227.25 217.11C225.15 216.25 218.46 215.32 212.12 215.00C204.55 214.62 200.52 214.27 199.00 213.85C191.82 211.88 188.58 208.80 188.03 203.44C187.28 195.98 189.78 191.72 196.14 189.64C198.43 188.90 201.74 188.18 205.75 187.58C209.30 187.04 219.22 186.97 223.50 187.45C228.75 188.04 235.93 188.99 236.35 189.15C236.94 189.38 237.03 190.02 236.95 193.60C236.89 196.28 236.81 196.87 236.46 197.08C236.16 197.27 234.73 197.24 231.58 196.99C225.42 196.49 204.97 196.48 203.00 196.97C200.57 197.58 199.04 198.62 198.64 199.93C198.12 201.63 200.21 204.42 202.50 205.10C203.99 205.54 208.24 205.91 214.38 206.12C223.42 206.44 227.98 207.23 232.87 209.31C236.68 210.94 238.04 212.44 239.28 216.38C240.15 219.17 239.77 223.74 238.45 226.34C237.79 227.63 236.13 229.40 234.88 230.14C232.41 231.58 224.90 233.51 219.76 234.01C216.97 234.28 207.22 234.26 203.62 233.98ZM50.61 233.43C50.09 233.13 50.17 232.36 50.85 231.17C51.18 230.60 52.80 227.54 54.44 224.38C59.42 214.82 60.31 213.14 60.51 212.88C60.61 212.74 61.73 210.60 63.01 208.12C64.28 205.65 65.51 203.34 65.73 203.00C65.96 202.66 66.29 202.06 66.45 201.67C66.62 201.28 67.99 198.66 69.50 195.86C71.01 193.05 72.25 190.69 72.25 190.61C72.25 190.53 72.55 190.07 72.92 189.59C74.11 188.03 74.63 187.89 79.27 187.88L83.41 187.88L84.64 188.63C85.84 189.38 88.53 192.87 88.86 194.12C88.93 194.40 90.02 196.59 91.27 199.00C92.52 201.41 94.44 205.12 95.52 207.25C96.61 209.38 98.44 212.87 99.60 215.00C100.76 217.13 102.43 220.28 103.32 222.00C104.21 223.72 105.80 226.74 106.84 228.71C107.89 230.69 108.75 232.44 108.75 232.60C108.75 233.39 108.14 233.50 103.59 233.50C97.87 233.50 98.03 233.60 95.93 228.74C95.18 227.02 94.08 225.75 92.55 224.83L91.38 224.12L85.62 224.19C77.44 224.29 72.25 224.05 72.07 223.57C71.87 223.06 74.41 217.84 75.37 216.79C75.78 216.33 76.40 215.84 76.74 215.71C77.08 215.58 79.56 215.47 82.24 215.47C87.60 215.48 88.00 215.43 88.00 214.76C88.00 214.52 87.09 212.58 85.97 210.47C84.86 208.35 83.45 205.67 82.84 204.50C80.18 199.40 80.16 199.38 79.51 199.38C79.10 199.38 78.79 199.59 78.58 200.00C78.41 200.34 77.32 202.37 76.17 204.50C75.01 206.63 73.48 209.56 72.76 211.00C72.04 212.44 71.36 213.74 71.26 213.88C71.16 214.01 70.19 215.81 69.12 217.88C66.03 223.80 61.86 231.59 61.40 232.31C60.63 233.47 59.53 233.71 55.04 233.66C52.80 233.64 50.81 233.54 50.61 233.43ZM116.96 233.56C113.77 233.50 112.73 233.41 112.51 233.14C112.09 232.64 112.10 188.61 112.52 188.10C112.77 187.81 115.59 187.75 130.59 187.75C151.81 187.75 154.89 187.96 159.42 189.65C165.88 192.08 169.07 198.00 167.62 204.88C166.84 208.58 164.43 211.86 161.51 213.18C160.11 213.82 155.81 214.99 154.86 215.00C154.30 215.00 153.75 215.44 153.75 215.88C153.75 216.04 154.62 217.24 155.69 218.55C156.75 219.85 159.08 222.71 160.86 224.90C162.64 227.09 164.81 229.70 165.69 230.71C168.21 233.62 168.22 233.61 162.00 233.70C159.00 233.74 156.51 233.67 155.99 233.52C154.86 233.19 154.23 232.51 150.36 227.38C140.96 214.93 141.88 215.89 139.13 215.63C138.07 215.53 135.19 215.49 132.74 215.54C127.05 215.65 127.25 215.78 127.98 212.39C128.64 209.38 129.04 208.38 129.79 207.96C130.24 207.70 132.78 207.59 140.62 207.47C147.07 207.38 151.43 207.21 152.38 207.02C155.44 206.40 156.78 204.78 156.83 201.63C156.87 199.42 156.07 197.86 154.42 196.89C152.77 195.92 150.12 195.75 136.37 195.75C125.45 195.75 123.79 195.80 123.31 196.14L122.75 196.53L122.75 214.46C122.75 233.59 122.77 233.28 121.57 233.53C121.33 233.58 119.25 233.59 116.96 233.56ZM5.22 233.09C4.93 232.74 4.86 228.90 4.81 210.80C4.74 191.15 4.78 188.87 5.14 188.32L5.53 187.72L25.20 187.81C46.83 187.92 47.14 187.94 51.88 189.51C57.04 191.22 59.32 194.63 59.67 201.12C59.91 205.73 58.54 209.91 56.12 211.87C54.24 213.41 51.81 214.35 48.38 214.89C44.91 215.42 21.07 215.43 20.54 214.89C20.20 214.55 20.23 214.21 20.89 211.59C21.98 207.28 20.83 207.66 33.46 207.47C39.19 207.38 44.38 207.20 45.00 207.08C47.72 206.52 49.07 204.92 49.21 202.07C49.37 199.01 48.15 196.92 45.82 196.26C45.23 196.10 39.43 195.93 30.56 195.83C16.93 195.68 16.23 195.69 15.75 196.13C15.25 196.58 15.24 196.83 15.26 214.72C15.28 231.76 15.26 232.88 14.84 233.18C14.52 233.41 13.20 233.50 9.98 233.50C6.18 233.50 5.51 233.44 5.22 233.09ZM173.00 233.00C172.51 232.51 172.50 232.17 172.50 210.67C172.50 192.22 172.55 188.77 172.85 188.36C173.18 187.91 173.54 187.88 177.69 187.88C181.12 187.88 182.27 187.96 182.59 188.22C183.20 188.73 183.22 232.49 182.61 233.11C182.28 233.43 181.48 233.50 177.86 233.50C173.83 233.50 173.46 233.46 173.00 233.00ZM43.75 175.34C40.62 174.82 37.01 173.60 34.83 172.33C33.02 171.28 30.56 168.59 29.62 166.63C26.92 161.02 28.58 154.32 33.67 150.27C34.37 149.71 35.04 149.25 35.16 149.25C35.28 149.25 35.88 148.98 36.50 148.66C38.12 147.81 39.74 147.33 42.98 146.76C48.18 145.83 54.17 146.14 60.58 147.66C64.05 148.48 64.21 148.72 62.98 151.18C61.97 153.19 61.62 153.31 59.04 152.54C55.15 151.37 52.05 150.93 48.88 151.08C42.23 151.39 37.71 153.60 35.81 157.48C34.84 159.46 34.85 162.24 35.84 164.29C36.69 166.07 39.05 168.30 40.97 169.16C44.41 170.70 49.54 171.15 54.42 170.35C57.67 169.81 57.85 169.63 57.96 166.85C58.10 163.65 58.28 163.75 52.34 163.75C47.58 163.75 47.51 163.74 47.13 163.17C46.47 162.16 47.59 159.74 48.97 159.22C49.35 159.07 52.51 158.97 56.62 158.98C62.89 159.00 63.66 159.04 63.94 159.42C64.17 159.74 64.25 161.53 64.25 166.30L64.25 172.76L62.94 173.35C58.63 175.31 49.33 176.28 43.75 175.34ZM116.88 175.14C113.59 174.37 112.17 173.80 110.33 172.55C108.49 171.30 107.44 170.03 106.55 167.95L105.88 166.38L105.81 157.12C105.77 151.36 105.83 147.73 105.99 147.50C106.37 146.91 111.27 146.80 111.84 147.37C112.20 147.74 112.25 148.66 112.25 155.59C112.25 164.15 112.42 165.50 113.69 167.35C115.47 169.92 121.38 171.66 125.28 170.75C128.32 170.04 131.31 167.72 131.96 165.54C132.50 163.75 132.76 159.34 132.69 153.46C132.61 146.51 132.39 146.92 136.05 147.05C137.38 147.09 138.58 147.24 138.71 147.38C139.08 147.76 139.31 158.93 139.03 163.12C138.71 168.04 138.37 169.11 136.55 170.97C134.82 172.74 131.45 174.45 128.38 175.14C125.10 175.87 119.95 175.87 116.88 175.14ZM192.77 175.37C185.44 174.25 179.90 170.30 177.97 164.85C177.75 164.23 177.62 162.77 177.62 160.86L177.62 157.84L178.67 155.73C181.53 149.96 187.62 146.72 196.38 146.32C202.16 146.06 208.16 147.55 212.12 150.23C216.57 153.24 218.87 158.97 217.62 163.88C216.17 169.58 211.33 173.55 203.88 175.15C201.34 175.70 195.63 175.81 192.77 175.37ZM70.14 174.61C69.80 174.26 69.75 172.68 69.75 161.03C69.75 150.84 69.82 147.75 70.06 147.42C70.35 147.02 71.20 146.99 80.23 146.98C85.64 146.98 90.76 147.05 91.60 147.13C96.65 147.63 99.65 149.09 101.12 151.77C101.79 152.99 101.87 153.35 101.87 155.38C101.88 159.15 100.62 160.99 96.78 162.84C95.06 163.66 94.62 163.98 94.62 164.41C94.62 164.75 96.10 166.62 98.62 169.48C100.83 171.97 102.62 174.20 102.62 174.44C102.62 174.83 102.28 174.88 99.51 174.95C97.71 174.99 96.12 174.90 95.75 174.75C95.07 174.47 92.13 171.38 88.91 167.58C86.53 164.77 85.97 164.50 82.51 164.50C80.59 164.50 79.95 164.41 79.64 164.11C79.17 163.63 79.17 163.79 79.63 162.48C80.03 161.34 80.78 160.39 81.62 159.94C81.90 159.79 84.38 159.59 87.13 159.49C93.80 159.26 94.96 158.78 95.39 156.09C95.62 154.62 94.99 153.41 93.53 152.55L92.38 151.88L84.91 151.80C78.45 151.73 77.37 151.78 76.85 152.12L76.25 152.51L76.25 163.46C76.25 171.63 76.17 174.48 75.95 174.70C75.47 175.18 70.64 175.10 70.14 174.61ZM145.42 174.69C145.03 174.40 145.00 173.28 144.98 161.05C144.97 151.09 145.04 147.63 145.26 147.36C145.51 147.06 147.28 147.00 156.34 147.00C162.27 147.00 167.79 147.11 168.61 147.25C174.19 148.16 177.60 153.29 176.04 158.43C175.28 160.92 174.16 162.27 171.92 163.38C170.13 164.26 169.99 164.29 165.86 164.53C160.75 164.83 155.15 164.61 154.63 164.09C154.24 163.71 154.29 163.51 155.19 161.82C156.18 159.97 156.42 159.90 162.18 159.79C167.75 159.68 168.12 159.59 169.33 157.94C170.51 156.35 169.71 153.29 167.88 152.38C166.94 151.91 166.38 151.88 159.42 151.88C152.25 151.88 151.95 151.89 151.59 152.37C151.29 152.80 151.24 154.53 151.27 163.60C151.31 173.73 151.29 174.35 150.86 174.67C150.26 175.11 146.01 175.12 145.42 174.69ZM201.58 170.35C208.46 168.63 211.00 166.09 211.00 160.93C211.00 157.17 209.05 154.34 205.32 152.72C201.51 151.06 197.89 150.66 194.06 151.48C187.16 152.95 183.98 156.27 184.31 161.61C184.47 164.12 185.21 165.73 186.93 167.25C188.76 168.89 191.51 169.95 196.88 171.08C197.58 171.24 198.77 171.05 201.58 170.35ZM59.38 126.28C57.09 125.70 55.87 125.05 54.16 123.49C52.43 121.91 51.08 119.34 50.74 116.99C50.43 114.79 50.44 16.73 50.76 14.28C51.24 10.57 53.37 7.48 56.70 5.68C59.44 4.19 56.43 4.26 115.75 4.26C167.62 4.26 170.21 4.28 171.88 4.72C176.61 5.95 179.46 8.83 180.38 13.30C180.72 14.92 180.76 18.77 180.70 43.52L180.62 71.88L179.93 73.94C176.93 82.78 170.94 93.57 164.85 101.12C162.40 104.15 155.74 110.76 152.50 113.37C146.47 118.24 139.13 122.67 131.75 125.91L130.12 126.62L95.62 126.67C63.44 126.72 61.01 126.69 59.38 126.28ZM141.44 126.58C140.47 126.32 140.99 125.58 142.81 124.63C143.81 124.12 144.79 123.56 145.00 123.40C145.21 123.24 145.88 122.84 146.50 122.52C147.12 122.19 147.85 121.73 148.12 121.49C148.40 121.26 148.91 120.92 149.25 120.75C153.41 118.63 164.00 109.02 168.62 103.15C173.29 97.24 177.12 91.25 180.32 84.86C181.65 82.21 182.09 81.73 182.48 82.47C182.92 83.29 182.84 115.17 182.39 117.28C181.51 121.41 178.97 124.28 174.75 125.90L172.88 126.62L157.38 126.66C148.85 126.68 141.68 126.65 141.44 126.58ZM88.85 115.03C89.23 114.60 89.26 113.61 89.20 103.42C89.13 92.66 89.11 92.26 88.61 91.58C88.04 90.78 86.10 89.74 83.88 89.03C83.05 88.77 81.47 88.22 80.38 87.81C73.71 85.32 71.89 84.73 71.17 84.80L70.38 84.88L70.31 99.73C70.25 113.28 70.28 114.62 70.66 115.04C71.05 115.47 71.65 115.50 79.75 115.50C87.91 115.50 88.45 115.47 88.85 115.03ZM88.95 83.45C89.18 83.22 89.25 77.56 89.25 59.49C89.25 36.66 89.27 35.81 89.72 35.40C90.16 35.01 91.95 34.98 115.28 35.05L140.38 35.13L142.59 35.73C146.32 36.74 148.37 38.60 149.49 42.01C150.66 45.60 149.79 50.51 147.56 52.84C146.43 54.00 145.00 54.67 142.50 55.17C141.47 55.38 140.18 55.66 139.62 55.80C139.04 55.94 130.84 56.10 119.95 56.17C102.52 56.29 101.25 56.33 100.88 56.75C100.31 57.37 97.70 69.18 98.00 69.75C98.35 70.41 100.33 70.50 115.00 70.49C137.36 70.48 144.62 70.06 152.06 68.37C159.10 66.77 163.58 63.64 165.97 58.66C167.20 56.09 167.63 54.13 168.03 49.20C168.53 42.95 167.79 37.12 166.03 33.50C162.86 26.98 157.09 23.75 144.75 21.61L140.88 20.94L106.12 20.81C71.48 20.69 71.37 20.69 70.75 21.20L70.12 21.71L70.12 49.08L70.12 76.46L70.65 77.17C71.14 77.82 73.70 79.08 75.88 79.73C77.41 80.20 86.84 83.51 86.96 83.63C87.21 83.87 88.66 83.74 88.95 83.45Z" fill="#FFFFFF" fill-rule="evenodd"/></svg>